<svg width="180" height="32" viewBox="0 0 180 32" fill="none" xmlns="http://www.w3.org/2000/svg">
<g clip-path="url(#clip0_1372_9603)">
<path d="M4.18202 31.3309C3.07362 31.3309 2.01055 30.8909 1.2264 30.1075C0.442238 29.3242 0.00113333 28.2616 0 27.1532L0 9.97611C0.00113159 9.05104 0.369116 8.16418 1.02324 7.51006C1.67736 6.85593 2.56422 6.48795 3.48929 6.48682H29.505C30.4288 6.48795 31.3143 6.85555 31.9673 7.50893C32.6203 8.16232 32.9874 9.04809 32.9879 9.97183V27.1532C32.9871 27.7809 32.8451 28.4003 32.5724 28.9657C32.2997 29.531 31.9033 30.0278 31.4126 30.4191C30.9218 30.8105 30.3493 31.0864 29.7375 31.2265C29.1256 31.3665 28.4901 31.3672 27.878 31.2283C25.1199 30.6125 22.9797 29.3596 21.6905 27.6064C21.5468 27.398 21.3554 27.2268 21.1323 27.1071C20.9092 26.9873 20.6608 26.9225 20.4077 26.918H12.5739C12.3207 26.9225 12.0723 26.9873 11.8492 27.1071C11.6261 27.2268 11.4347 27.398 11.291 27.6064C10.0082 29.3596 7.87015 30.6125 5.10352 31.2283C4.80098 31.2958 4.492 31.3302 4.18202 31.3309ZM3.48929 8.48375C3.09236 8.48375 2.71169 8.64143 2.43101 8.9221C2.15034 9.20278 1.99266 9.58345 1.99266 9.98038V27.1532C1.99032 27.4817 2.06285 27.8065 2.20473 28.1029C2.34661 28.3992 2.55413 28.6594 2.81153 28.8636C3.07014 29.0705 3.37208 29.2164 3.69487 29.2904C4.01766 29.3644 4.35299 29.3647 4.67591 29.2912C6.26662 28.9363 8.42818 28.1538 9.69177 26.4348C10.019 25.9746 10.4511 25.5989 10.9522 25.3387C11.4533 25.0784 12.0092 24.9412 12.5739 24.9382H20.4141C20.9786 24.9419 21.5342 25.0794 22.0352 25.3396C22.5363 25.5998 22.9684 25.9751 23.2962 26.4348C24.5597 28.1452 26.717 28.9363 28.3099 29.2912C28.6331 29.3647 28.9688 29.3645 29.2919 29.2904C29.6151 29.2164 29.9174 29.0705 30.1764 28.8636C30.4347 28.6598 30.6433 28.3999 30.7863 28.1036C30.9293 27.8072 31.0029 27.4822 31.0017 27.1532V9.97183C31.0017 9.5749 30.844 9.19423 30.5633 8.91355C30.2827 8.63288 29.902 8.4752 29.505 8.4752L3.48929 8.48375Z" fill="#1D1D1B"/>
<path d="M2.74525 8.59486V7.59639L2.30481 6.70269L2.48013 6.66207V6.63641L24.2241 0.151715C24.7565 -0.00683156 25.3187 -0.0387786 25.8657 0.0584208C26.4127 0.15562 26.9294 0.379277 27.3747 0.71156C27.82 1.04384 28.1814 1.47556 28.4303 1.97229C28.6791 2.46901 28.8085 3.01701 28.808 3.57259V7.48308H26.8111V3.56617C26.8099 3.32254 26.752 3.08254 26.642 2.86516C26.5319 2.64779 26.3728 2.45902 26.1772 2.3138C25.9815 2.16859 25.7548 2.07091 25.5149 2.02852C25.275 1.98612 25.0285 2.00017 24.7949 2.06954L3.12154 8.52644L2.98685 8.59272L2.74525 8.59486Z" fill="#1D1D1B"/>
<path d="M9.98893 21.4959C9.67139 21.4959 9.36685 21.3697 9.14231 21.1452C8.91777 20.9206 8.79163 20.6161 8.79163 20.2986V14.6285C8.79163 14.3109 8.91777 14.0064 9.14231 13.7818C9.36685 13.5573 9.67139 13.4312 9.98893 13.4312C10.3065 13.4312 10.611 13.5573 10.8356 13.7818C11.0601 14.0064 11.1862 14.3109 11.1862 14.6285V20.2986C11.1862 20.6161 11.0601 20.9206 10.8356 21.1452C10.611 21.3697 10.3065 21.4959 9.98893 21.4959V21.4959Z" fill="#1D1D1B"/>
<path d="M12.8282 18.661H7.15385C6.8363 18.661 6.53176 18.5348 6.30723 18.3103C6.08269 18.0857 5.95654 17.7812 5.95654 17.4637C5.95654 17.1461 6.08269 16.8416 6.30723 16.617C6.53176 16.3925 6.8363 16.2664 7.15385 16.2664H12.8282C13.1458 16.2664 13.4503 16.3925 13.6748 16.617C13.8994 16.8416 14.0255 17.1461 14.0255 17.4637C14.0255 17.7812 13.8994 18.0857 13.6748 18.3103C13.4503 18.5348 13.1458 18.661 12.8282 18.661Z" fill="#1D1D1B"/>
<path d="M22.6997 21.4959C21.9019 21.4971 21.1216 21.2617 20.4577 20.8194C19.7937 20.3771 19.2759 19.7478 18.9697 19.0111C18.6635 18.2744 18.5827 17.4634 18.7376 16.6808C18.8925 15.8981 19.276 15.1791 19.8397 14.6145C20.4034 14.0499 21.1218 13.6652 21.9042 13.5091C22.6866 13.353 23.4977 13.4325 24.2349 13.7375C24.9721 14.0425 25.6022 14.5593 26.0456 15.2226C26.4889 15.8858 26.7256 16.6657 26.7256 17.4635C26.7245 18.5315 26.3002 19.5555 25.5456 20.3113C24.791 21.0671 23.7676 21.493 22.6997 21.4959V21.4959ZM22.6997 15.8258C22.3757 15.8258 22.0591 15.9218 21.7898 16.1018C21.5205 16.2817 21.3105 16.5375 21.1866 16.8368C21.0626 17.136 21.0302 17.4653 21.0934 17.783C21.1566 18.1007 21.3126 18.3925 21.5416 18.6216C21.7706 18.8506 22.0625 19.0066 22.3802 19.0698C22.6978 19.133 23.0271 19.1005 23.3264 18.9766C23.6257 18.8526 23.8814 18.6427 24.0614 18.3734C24.2414 18.1041 24.3374 17.7874 24.3374 17.4635C24.338 17.2481 24.296 17.0346 24.214 16.8355C24.1319 16.6363 24.0114 16.4552 23.8592 16.3027C23.7071 16.1501 23.5264 16.0291 23.3274 15.9466C23.1284 15.864 22.9151 15.8215 22.6997 15.8215V15.8258Z" fill="#1D1D1B"/>
<path d="M61.8088 10.8634V22.0219H58.4585V20.9742C57.723 21.8295 56.6283 22.3362 55.1338 22.3362C52.209 22.3362 49.7887 19.7705 49.7887 16.4437C49.7887 13.1169 52.1983 10.5513 55.1338 10.5513C56.6304 10.5513 57.723 11.0644 58.4585 11.9132V10.8634H61.8088ZM58.4585 16.4437C58.4585 14.7696 57.3446 13.7199 55.803 13.7199C54.2615 13.7199 53.1476 14.7696 53.1476 16.4437C53.1476 18.1178 54.2636 19.1676 55.803 19.1676C57.3424 19.1676 58.4585 18.1178 58.4585 16.4437V16.4437Z" fill="#1D1D1B"/>
<path d="M74.9771 15.1801V22.0219H71.6246V15.6633C71.6246 14.2779 70.7544 13.6322 69.6833 13.6322C68.4539 13.6322 67.6072 14.3463 67.6072 15.9306V22.0219H64.2633V10.8634H67.6115V11.9132C68.2144 11.0858 69.3219 10.5513 70.8036 10.5513C73.0571 10.5513 74.9771 12.1569 74.9771 15.1801Z" fill="#1D1D1B"/>
<path d="M88.729 10.8634V22.0219H85.3786V20.9742C84.6432 21.8295 83.5485 22.3362 82.054 22.3362C79.1291 22.3362 76.7089 19.7705 76.7089 16.4437C76.7089 13.1169 79.1206 10.5513 82.054 10.5513C83.5506 10.5513 84.6432 11.0644 85.3786 11.9132V10.8634H88.729ZM85.3808 16.4437C85.3808 14.7696 84.2647 13.7199 82.7253 13.7199C81.1859 13.7199 80.0699 14.7696 80.0699 16.4437C80.0699 18.1178 81.1859 19.1676 82.7253 19.1676C84.2647 19.1676 85.3786 18.1178 85.3786 16.4437H85.3808Z" fill="#1D1D1B"/>
<path d="M91.1833 5.72998H94.5315V22.0219H91.1833V5.72998Z" fill="#1D1D1B"/>
<path d="M96.4259 16.4436C96.4213 15.2726 96.7643 14.1265 97.4115 13.1505C98.0587 12.1746 98.981 11.4126 100.062 10.9613C101.142 10.5099 102.332 10.3894 103.482 10.615C104.631 10.8406 105.687 11.4022 106.517 12.2286C107.346 13.055 107.912 14.1091 108.142 15.2573C108.373 16.4055 108.257 17.5962 107.81 18.6786C107.363 19.761 106.604 20.6863 105.631 21.3374C104.658 21.9885 103.513 22.3361 102.342 22.3361C101.565 22.3449 100.793 22.1987 100.073 21.906C99.3528 21.6133 98.6982 21.18 98.1474 20.6314C97.5966 20.0828 97.1606 19.4298 96.8651 18.7108C96.5695 17.9918 96.4202 17.221 96.4259 16.4436ZM104.908 16.4436C104.908 14.8594 103.792 13.8096 102.342 13.8096C100.892 13.8096 99.7763 14.8594 99.7763 16.4436C99.7763 18.0279 100.892 19.0777 102.342 19.0777C103.792 19.0777 104.91 18.0279 104.91 16.4436H104.908Z" fill="#1D1D1B"/>
<path d="M121.608 10.8634V21.466C121.608 25.2161 118.683 26.8004 115.713 26.8004C113.393 26.8004 111.45 25.9302 110.424 24.1001L113.28 22.4495C113.708 23.2299 114.349 23.8542 115.827 23.8542C117.387 23.8542 118.347 23.0503 118.347 21.466V20.4397C117.612 21.3548 116.541 21.8915 115.089 21.8915C111.918 21.8915 109.598 19.3002 109.598 16.2214C109.598 13.1426 111.918 10.5513 115.089 10.5513C116.541 10.5513 117.612 11.0858 118.347 12.0009V10.8634H121.608ZM118.347 16.2214C118.347 14.6798 117.231 13.6322 115.647 13.6322C114.063 13.6322 112.947 14.6798 112.947 16.2214C112.947 17.7629 114.063 18.8148 115.647 18.8148C117.231 18.8148 118.347 17.7608 118.347 16.2214Z" fill="#1D1D1B"/>
<path d="M138.304 18.6758C138.304 21.2415 136.072 22.3362 133.66 22.3362C131.428 22.3362 129.732 21.481 128.862 19.6807L131.764 18.028C132.054 18.8832 132.679 19.3451 133.66 19.3451C134.464 19.3451 134.866 19.0992 134.866 18.6545C134.866 17.4272 129.375 18.0729 129.375 14.2116C129.375 11.7785 131.428 10.5513 133.75 10.5513C135.559 10.5513 137.171 11.3552 138.103 12.9395L135.246 14.4789C134.932 13.8995 134.485 13.4975 133.75 13.4975C133.17 13.4975 132.813 13.7113 132.813 14.1218C132.813 15.3939 138.304 14.5387 138.304 18.6758Z" fill="#1D1D1B"/>
<path d="M143.891 14.0769V18.028C143.891 18.9879 144.716 19.0777 146.189 18.9879V22.0218C141.815 22.4687 140.542 21.1517 140.542 18.0258V14.0769H138.759V10.8698H140.545V8.74243L143.891 7.73755V10.8634H146.189V14.0704L143.891 14.0769Z" fill="#1D1D1B"/>
<path d="M147.299 16.4436C147.294 15.2726 147.637 14.1265 148.284 13.1505C148.931 12.1746 149.854 11.4126 150.934 10.9613C152.015 10.5099 153.205 10.3894 154.354 10.615C155.503 10.8406 156.56 11.4022 157.389 12.2286C158.219 13.055 158.785 14.1091 159.015 15.2573C159.245 16.4055 159.13 17.5962 158.682 18.6786C158.235 19.761 157.477 20.6863 156.504 21.3374C155.53 21.9885 154.386 22.3361 153.215 22.3361C152.437 22.3449 151.666 22.1987 150.946 21.906C150.225 21.6133 149.571 21.18 149.02 20.6314C148.469 20.0828 148.033 19.4298 147.738 18.7108C147.442 17.9918 147.293 17.221 147.299 16.4436ZM155.782 16.4436C155.782 14.8594 154.664 13.8096 153.217 13.8096C151.769 13.8096 150.651 14.8594 150.651 16.4436C150.651 18.0279 151.767 19.0777 153.217 19.0777C154.666 19.0777 155.782 18.0279 155.782 16.4436Z" fill="#1D1D1B"/>
<path d="M167.723 10.6411V14.434C166.34 14.2202 164.375 14.7697 164.375 16.9804V22.0219H161.027V10.8635H164.375V12.8497C164.822 11.3552 166.316 10.6411 167.723 10.6411Z" fill="#1D1D1B"/>
<path d="M174.621 19.3451C175.016 19.355 175.41 19.2843 175.778 19.1372C176.145 18.9902 176.479 18.77 176.759 18.4898L179.438 20.0292C178.343 21.5472 176.692 22.3276 174.572 22.3276C170.755 22.3276 168.388 19.762 168.388 16.4352C168.388 13.1084 170.8 10.5427 174.326 10.5427C177.586 10.5427 179.996 13.0656 179.996 16.4352C179.998 16.8848 179.953 17.3334 179.861 17.7736H171.942C172.365 18.9431 173.396 19.3451 174.621 19.3451ZM176.673 15.2828C176.316 13.9999 175.313 13.5189 174.309 13.5189C173.036 13.5189 172.188 14.1453 171.875 15.2828H176.673Z" fill="#1D1D1B"/>
</g>
<defs>
<clipPath id="clip0_1372_9603">
<rect width="180" height="31.3309" fill="white"/>
</clipPath>
</defs>
</svg>
